<svg width="24" height="22" viewBox="0 0 24 22" fill="none" xmlns="http://www.w3.org/2000/svg">
<path d="M3.05 10.3125C2.55576 9.82156 2.16417 9.23714 1.89806 8.59332C1.63195 7.9495 1.49664 7.25916 1.5 6.56252C1.5 5.15356 2.05971 3.8023 3.056 2.80602C4.05228 1.80973 5.40354 1.25002 6.8125 1.25002C8.7875 1.25002 10.5125 2.32502 11.425 3.92502H12.825C13.2889 3.11134 13.9601 2.43513 14.7704 1.96524C15.5806 1.49535 16.5009 1.24857 17.4375 1.25002C18.8465 1.25002 20.1977 1.80973 21.194 2.80602C22.1903 3.8023 22.75 5.15356 22.75 6.56252C22.75 8.02502 22.125 9.37502 21.2 10.3125L12.125 19.375L3.05 10.3125ZM22.075 11.2C23.2625 10 24 8.37502 24 6.56252C24 4.82204 23.3086 3.15284 22.0779 1.92213C20.8472 0.691427 19.178 2.2565e-05 17.4375 2.2565e-05C15.25 2.2565e-05 13.3125 1.06252 12.125 2.71252C11.5189 1.87065 10.7208 1.18542 9.79685 0.713683C8.87294 0.241946 7.84987 -0.00270538 6.8125 2.2565e-05C5.07202 2.2565e-05 3.40282 0.691427 2.17211 1.92213C0.941404 3.15284 0.25 4.82204 0.25 6.56252C0.25 8.37502 0.9875 10 2.175 11.2L12.125 21.15L22.075 11.2Z" fill="#212121"/>
</svg>
