<svg width="24" height="25" viewBox="0 0 24 25" fill="none" xmlns="http://www.w3.org/2000/svg">
<rect x="0.75" y="1.3501" width="22.5" height="22.5" rx="11.25" stroke="#F66523" stroke-width="1.5"/>
<path d="M13.33 6.6001C12.6049 6.6001 11.9095 6.9205 11.3968 7.49081C10.8841 8.06113 10.5961 8.83464 10.5961 9.64119V11.3343H9.133C9.0597 11.3343 9 11.4001 9 11.4823V13.7179C9 13.7994 9.05911 13.8659 9.133 13.8659H10.5961V18.4522C10.5961 18.5337 10.6552 18.6001 10.7291 18.6001H12.7389C12.8122 18.6001 12.8719 18.5343 12.8719 18.4522V13.8659H14.348C14.4089 13.8659 14.4621 13.8198 14.4768 13.7541L14.9793 11.5185C14.9843 11.4966 14.9847 11.4739 14.9805 11.4518C14.9763 11.4298 14.9677 11.4092 14.9553 11.3914C14.9429 11.3737 14.927 11.3593 14.9088 11.3494C14.8906 11.3395 14.8707 11.3344 14.8504 11.3343H12.8719V9.64119C12.8719 9.57427 12.8838 9.50801 12.9068 9.44618C12.9298 9.38436 12.9636 9.32818 13.0061 9.28086C13.0486 9.23354 13.0991 9.196 13.1547 9.17039C13.2103 9.14479 13.2699 9.1316 13.33 9.1316H14.867C14.9403 9.1316 15 9.06585 15 8.98366V6.74804C15 6.66651 14.9409 6.6001 14.867 6.6001H13.33Z" fill="#F66523"/>
</svg>
