<svg width="24" height="25" viewBox="0 0 24 25" fill="none" xmlns="http://www.w3.org/2000/svg">
<rect y="0.600098" width="24" height="24" rx="12" fill="#F66523"/>
<path d="M12.6168 6.6001C13.2918 6.6019 13.6344 6.6055 13.9301 6.6139L14.0465 6.6181C14.1809 6.6229 14.3135 6.6289 14.4737 6.6361C15.1121 6.6661 15.5477 6.76689 15.9298 6.91509C16.3258 7.06749 16.6594 7.27388 16.993 7.60687C17.2982 7.90671 17.5343 8.26954 17.6848 8.67005C17.8329 9.05224 17.9337 9.48783 17.9637 10.1268C17.9709 10.2864 17.9769 10.419 17.9817 10.554L17.9853 10.6704C17.9943 10.9656 17.9979 11.3082 17.9991 11.9832L17.9997 12.4308V13.2167C18.0012 13.6544 17.9966 14.092 17.9859 14.5295L17.9823 14.6459C17.9775 14.7809 17.9715 14.9135 17.9643 15.0731C17.9343 15.7121 17.8323 16.1471 17.6848 16.5299C17.5343 16.9304 17.2982 17.2932 16.993 17.593C16.6932 17.8982 16.3303 18.1343 15.9298 18.2848C15.5477 18.433 15.1121 18.5338 14.4737 18.5638L14.0465 18.5818L13.9301 18.5854C13.6344 18.5938 13.2918 18.598 12.6168 18.5992L12.1692 18.5998H11.3839C10.946 18.6014 10.5082 18.5968 10.0705 18.586L9.95414 18.5824C9.81172 18.577 9.66932 18.5708 9.52696 18.5638C8.8886 18.5338 8.45302 18.433 8.07024 18.2848C7.66996 18.1343 7.30734 17.8982 7.00769 17.593C6.70227 17.2933 6.46598 16.9304 6.31533 16.5299C6.16713 16.1477 6.06634 15.7121 6.03634 15.0731L6.01834 14.6459L6.01534 14.5295C6.00428 14.092 5.99928 13.6544 6.00034 13.2167V11.9832C5.99868 11.5455 6.00308 11.1079 6.01354 10.6704L6.01774 10.554C6.02254 10.419 6.02854 10.2864 6.03574 10.1268C6.06574 9.48783 6.16653 9.05284 6.31473 8.67005C6.46573 8.26938 6.70244 7.90653 7.00829 7.60687C7.30777 7.30181 7.67017 7.06573 8.07024 6.91509C8.45302 6.76689 8.888 6.6661 9.52696 6.6361C9.68656 6.6289 9.81975 6.6229 9.95414 6.6181L10.0705 6.6145C10.508 6.60384 10.9456 6.59924 11.3833 6.6007L12.6168 6.6001ZM12 9.60003C11.2044 9.60003 10.4414 9.91609 9.87883 10.4787C9.31624 11.0413 9.00019 11.8043 9.00019 12.6C9.00019 13.3956 9.31624 14.1586 9.87883 14.7212C10.4414 15.2838 11.2044 15.5999 12 15.5999C12.7956 15.5999 13.5587 15.2838 14.1213 14.7212C14.6838 14.1586 14.9999 13.3956 14.9999 12.6C14.9999 11.8043 14.6838 11.0413 14.1213 10.4787C13.5587 9.91609 12.7956 9.60003 12 9.60003ZM12 10.8C12.2364 10.8 12.4705 10.8465 12.6889 10.9369C12.9072 11.0273 13.1057 11.1599 13.2729 11.327C13.44 11.4941 13.5726 11.6925 13.6631 11.9109C13.7536 12.1292 13.8002 12.3633 13.8002 12.5997C13.8003 12.836 13.7538 13.0701 13.6634 13.2885C13.5729 13.5069 13.4404 13.7053 13.2733 13.8725C13.1062 14.0397 12.9078 14.1723 12.6894 14.2628C12.4711 14.3533 12.237 14.3999 12.0006 14.3999C11.5233 14.3999 11.0655 14.2103 10.7279 13.8727C10.3904 13.5352 10.2007 13.0773 10.2007 12.6C10.2007 12.1226 10.3904 11.6647 10.7279 11.3272C11.0655 10.9896 11.5233 10.8 12.0006 10.8M15.1505 8.70005C14.9516 8.70005 14.7608 8.77906 14.6202 8.91971C14.4795 9.06036 14.4005 9.25112 14.4005 9.45003C14.4005 9.64894 14.4795 9.8397 14.6202 9.98035C14.7608 10.121 14.9516 10.2 15.1505 10.2C15.3494 10.2 15.5401 10.121 15.6808 9.98035C15.8214 9.8397 15.9004 9.64894 15.9004 9.45003C15.9004 9.25112 15.8214 9.06036 15.6808 8.91971C15.5401 8.77906 15.3494 8.70005 15.1505 8.70005Z" fill="#202447"/>
</svg>
