<svg width="24" height="25" viewBox="0 0 24 25" fill="none" xmlns="http://www.w3.org/2000/svg">
<rect x="0.75" y="1.3501" width="22.5" height="22.5" rx="11.25" stroke="#F66523" stroke-width="1.5"/>
<path d="M8.8085 8.7117C8.80835 9.00637 8.68659 9.28891 8.47002 9.49717C8.25345 9.70543 7.9598 9.82234 7.65367 9.8222C7.34755 9.82205 7.05402 9.70485 6.83766 9.49638C6.62131 9.28792 6.49985 9.00526 6.5 8.71059C6.50015 8.41592 6.62191 8.13338 6.83848 7.92512C7.05505 7.71687 7.3487 7.59995 7.65483 7.6001C7.96095 7.60025 8.25448 7.71744 8.47084 7.92591C8.68719 8.13438 8.80865 8.41703 8.8085 8.7117ZM8.84313 10.6449H6.53463V17.6001H8.84313V10.6449ZM12.4906 10.6449H10.1936V17.6001H12.4675V13.9503C12.4675 11.9171 15.2204 11.7282 15.2204 13.9503V17.6001H17.5V13.1948C17.5 9.7672 13.4255 9.89497 12.4675 11.5782L12.4906 10.6449Z" fill="#F66523"/>
</svg>
