<svg width="24" height="25" viewBox="0 0 24 25" fill="none" xmlns="http://www.w3.org/2000/svg">
<rect x="0.75" y="1.3501" width="22.5" height="22.5" rx="11.25" stroke="#F66523" stroke-width="1.5"/>
<path d="M7.83821 8.62123C7.9335 8.61009 8.03001 8.62536 8.1173 8.66539C8.20459 8.70542 8.27934 8.76868 8.33348 8.84834C9.11033 9.99131 10.043 10.4667 11.0783 10.5747C11.1288 10.1295 11.2483 9.68956 11.473 9.30204C11.8025 8.73347 12.3383 8.31524 13.1035 8.16066C14.1615 7.94678 14.9667 8.33218 15.4336 8.80387L16.3767 8.62653C16.4754 8.60793 16.5774 8.61811 16.6705 8.65588C16.7636 8.69365 16.8441 8.75743 16.9023 8.83969C16.9606 8.92195 16.9943 9.01925 16.9993 9.12013C17.0044 9.221 16.9807 9.32122 16.931 9.40898L16.0257 11.0088C16.1083 13.3175 15.4704 14.929 14.1104 16.0392C13.3893 16.6278 12.3567 16.9619 11.2235 17.0651C10.0814 17.1689 8.79033 17.0434 7.50715 16.6665C7.39752 16.6343 7.30126 16.5672 7.2329 16.4751C7.16454 16.3831 7.1278 16.2712 7.12822 16.1563C7.12863 16.0415 7.16619 15.9298 7.23521 15.8383C7.30423 15.7468 7.40097 15.6803 7.51084 15.649C8.15611 15.4642 8.6477 15.3049 9.09139 15.0259C8.46032 14.6892 7.99558 14.2487 7.66663 13.7469C7.20978 13.0491 7.04031 12.2709 7.00662 11.5694C6.97294 10.868 7.07346 10.2179 7.17978 9.74938C7.24031 9.48203 7.31084 9.21416 7.4082 8.95793C7.44255 8.86761 7.50084 8.78848 7.57673 8.72912C7.65263 8.66976 7.74272 8.63245 7.83821 8.62123Z" fill="#F66523"/>
</svg>
