<svg width="23" height="24" viewBox="0 0 23 24" fill="none" xmlns="http://www.w3.org/2000/svg">
<path d="M4.5 21C4.5 21.5304 4.71071 22.0391 5.08579 22.4142C5.46086 22.7893 5.96957 23 6.5 23C7.03043 23 7.53914 22.7893 7.91421 22.4142C8.28929 22.0391 8.5 21.5304 8.5 21M11.5 21C11.5 21.5304 11.7107 22.0391 12.0858 22.4142C12.4609 22.7893 12.9696 23 13.5 23C14.0304 23 14.5391 22.7893 14.9142 22.4142C15.2893 22.0391 15.5 21.5304 15.5 21M6 7.5H21.5V7.75L21.261 8.033C18.8317 10.918 17.4997 14.5684 17.5 18.34V18.5H4.5V16.62C4.5 14.54 4.434 12.462 4.114 10.408C3.56 6.852 2.337 1.5 0 1.5" stroke="white" stroke-width="1.5"/>
</svg>
