<svg width="20" height="20" viewBox="0 0 20 20" fill="none" xmlns="http://www.w3.org/2000/svg">
<path d="M19 19L14.657 14.657M14.657 14.657C15.3999 13.9141 15.9892 13.0322 16.3912 12.0615C16.7933 11.0909 17.0002 10.0506 17.0002 8.99999C17.0002 7.94939 16.7933 6.90908 16.3912 5.93845C15.9892 4.96782 15.3999 4.08588 14.657 3.34299C13.9141 2.6001 13.0322 2.01081 12.0615 1.60877C11.0909 1.20672 10.0506 0.999786 9 0.999786C7.9494 0.999786 6.90908 1.20672 5.93845 1.60877C4.96782 2.01081 4.08589 2.6001 3.343 3.34299C1.84267 4.84332 0.999794 6.87821 0.999794 8.99999C0.999794 11.1218 1.84267 13.1567 3.343 14.657C4.84333 16.1573 6.87821 17.0002 9 17.0002C11.1218 17.0002 13.1567 16.1573 14.657 14.657Z" stroke="white" stroke-width="1.5" stroke-linecap="round" stroke-linejoin="round"/>
</svg>
